PathFileType	4	(X/Y/Z)	Patient4_TMGait_0pt4_03_left_20.trc.trc
DataRate	CameraRate	NumFrames	NumMarkers	Units	OrigDataRate	OrigDataStartFrame	OrigNumFrames
77.777777777778	77.777777777778	5	33	mm	77.777777777778	89	       141
Frame#	Time	Sacral			L.Shoulder			Chest			R.Shoulder			Neck			R.ASIS			L.ASIS			R.Thigh.Superior			R.Thigh.Lateral			R.Thigh.Inferior			R.Patella			L.Thigh.Superior			L.Thigh.Lateral			L.Thigh.Inferior			L.Patella			L.Shank.Superior			L.Shank.Lateral			L.Shank.Inferior			R.Shank.Superior			R.Shank.Lateral			R.Shank.Inferior			R.Heel			R.Midfoot.Superior			R.Midfoot.Lateral			R.Toe			L.Heel			L.Midfoot.Lateral			L.Midfoot.Superior			L.Toe			L.Elbow			L.Wrist			R.Elbow			R.Wrist			
		X1	Y1	Z1	X2	Y2	Z2	X3	Y3	Z3	X4	Y4	Z4	X5	Y5	Z5	X6	Y6	Z6	X7	Y7	Z7	X8	Y8	Z8	X9	Y9	Z9	X10	Y10	Z10	X11	Y11	Z11	X12	Y12	Z12	X13	Y13	Z13	X14	Y14	Z14	X15	Y15	Z15	X16	Y16	Z16	X17	Y17	Z17	X18	Y18	Z18	X19	Y19	Z19	X20	Y20	Z20	X21	Y21	Z21	X22	Y22	Z22	X23	Y23	Z23	X24	Y24	Z24	X25	Y25	Z25	X26	Y26	Z26	X27	Y27	Z27	X28	Y28	Z28	X29	Y29	Z29	X30	Y30	Z30	X31	Y31	Z31	X32	Y32	Z32	X33	Y33	Z33	

89	27.281428571429	902.387762567470	1001.655666569319	493.427957062600	1105.499527329720	1425.845087163339	320.123978028036	1191.593207342993	1360.847515878849	491.906925108425	1092.013958356360	1437.556759795432	655.698358323363	1081.814782522506	1491.560786047806	474.926368835316	1122.602600070459	941.856543231734	630.861208270322	1129.636122278653	956.854186456246	357.248675375769	1179.243961883157	745.892459434796	604.977796287980	1100.991961152086	631.879023219294	657.535618198188	1187.501715770958	585.728851380454	582.773078122021	1194.491969346358	496.649158088494	588.381089507769	1177.468938582988	742.866483928327	381.559905804461	1104.627895025102	628.126003536738	300.350049820191	1190.757329507431	546.014669331459	362.174786046689	1186.153592418312	460.896068381125	354.258096708167	1119.174367432561	402.163996711274	342.247652855113	981.402580390020	358.568452427113	286.608463423290	967.468244471720	228.196398822408	336.813291332297	1165.749675116324	406.929949338412	593.036071498473	1093.696660704870	302.715447136623	652.278266913675	1137.077567616508	207.797242494153	590.210522754351	1005.341285436414	43.906069282676	555.770678871251	1174.380011745740	97.424452876142	599.347551825420	1085.760277941390	37.566266381445	634.467710008373	1294.384268947426	43.557869495659	631.713717454679	777.449345917120	159.669006926262	366.686195139072	838.339038833098	116.286786875721	288.121538889703	941.687798974094	127.057063623196	312.731598109252	1023.504981533815	31.822865522832	286.611431016543	1066.291794538555	1078.096723729319	198.123464964853	1181.246539865060	839.842626229793	195.224106379125	1037.185494385294	1097.641477323898	785.020873058033	1173.673767130362	875.650431821871	792.961818144802	
90	27.294285714286	901.823105592943	1002.080110736153	497.142609722890	1104.369650724835	1426.033126010924	322.841455513920	1191.898507408727	1360.611637527635	493.806312834111	1093.976710030352	1437.360721341616	658.520117358531	1081.976675673865	1491.663720232823	477.907081172589	1123.044259640627	941.699624523541	632.867956204493	1128.022255577872	956.869468087645	359.263036484770	1178.202413185142	745.193076853308	606.889114047722	1099.418006245203	631.561026296236	659.232261600952	1185.419996923058	585.093223052448	584.246785620171	1191.815873809833	495.913769918272	589.673404252216	1180.507937101122	745.814993149798	383.459874006172	1111.293755226862	629.690321776634	301.875905337982	1199.423362363103	549.424291937101	363.736072897675	1196.224022231176	463.562242806933	355.654987231163	1128.262384628067	404.398031399854	343.573480015707	989.422818355433	364.132391477886	287.765199937386	972.642102424532	233.936883691638	337.764490166444	1162.589177322798	406.364240489141	594.099465586565	1090.006480274528	302.373253548862	653.073214873646	1132.693327796035	207.419023467365	590.655347605053	1000.057873685325	43.914837309593	555.877781521038	1169.179820843411	97.330988410197	599.547087692724	1080.471957422957	37.501308841962	634.569410398735	1289.154051851753	43.236514981924	631.851263770827	780.746052147665	172.465942899779	367.284345792405	839.999662917913	126.592371157625	288.662717173580	943.936832160072	132.200151516345	313.632301326545	1020.817480819409	31.238098964511	287.140200489776	1063.609566054812	1078.568153778936	200.503379114419	1179.105525068553	840.644134337475	195.975043060005	1040.656832315988	1098.095050167280	790.012670798497	1180.734435095819	878.567128775972	797.418728639236	
91	27.307142857143	901.118672458765	1002.495723196259	500.708550560527	1103.161476992930	1426.148253362928	325.383990529799	1192.130099710838	1360.300091919922	495.502146186523	1095.930581706436	1437.147111033798	661.146749130914	1082.138561433435	1491.741412569204	480.664586671922	1123.328073521949	941.493618634367	634.749454134821	1126.230519375072	956.889573455477	361.119102393844	1177.055497865734	744.517968991414	608.460067070853	1097.894286203411	631.256123808953	660.754656317031	1183.313760370659	584.469154200965	585.470381009991	1189.118623416620	495.183729188090	590.759824755094	1183.137868448008	748.941896007133	385.241169337208	1117.401402247451	631.552576690610	303.308357183019	1207.453766245382	553.199458200612	365.191002054618	1205.777628771710	466.653239121024	357.036845150825	1137.002603670375	406.969449708331	344.896214362968	997.294244094014	369.579414414090	288.919841322670	978.072076967996	239.553781942731	338.834571366772	1159.424487256635	405.795901760153	595.018246907179	1086.306435857599	302.054132136215	653.779886295078	1128.297559706164	207.046641987268	591.034834185996	994.777604138185	43.917098787731	555.990806463456	1163.976828938500	97.257594178784	599.726808754512	1075.186186942075	37.448482643226	634.673236712636	1283.918848735141	42.971251543701	631.972239032395	784.690474090368	184.141319266297	368.008843283186	842.543189805452	136.259806304521	289.316831375182	946.849619745047	137.371389856060	314.686295960573	1019.366685470325	31.017299867915	287.722728216469	1060.602160934021	1078.954596389000	202.811368733785	1176.753578316379	841.435844543630	196.424703137577	1044.210689200506	1098.573158567736	794.939275399498	1187.639021506898	881.418625357638	801.890483068502	
92	27.320000000000	900.303037600087	1002.925877821956	504.140286735782	1101.895540756397	1426.227114836991	327.758015115677	1192.289226458466	1359.954766837282	497.008374826695	1097.863325399391	1436.950801130714	663.589555322308	1082.299188131100	1491.821098856672	483.200143398745	1123.467335715869	941.251602954006	636.497145719548	1124.278571643443	956.970563164838	362.822150517727	1175.821713098546	743.869279150757	609.727367336959	1096.381226531224	630.966765609759	662.096109230723	1181.173493768250	583.854438852250	586.461340555756	1186.385140150169	494.465803450654	591.626983361975	1185.296045818857	752.224568481794	386.918451282108	1122.850798020475	633.700500280575	304.635054384143	1214.769749017873	557.297466836695	366.486528675798	1214.713999923170	470.135726317567	358.305381377596	1145.318437768751	409.850987295009	346.135558299324	1004.915797679779	374.762273881204	290.061252013004	983.800782501675	244.843773233741	339.959265548268	1156.243100242321	405.233903833726	595.783958701441	1082.587055840250	301.767909413036	654.389850737066	1123.892497586951	206.688923657233	591.343959168146	989.513594221081	43.911623174949	556.107658862851	1158.780691002240	97.207024853022	599.887213167905	1069.916836603169	37.410797020155	634.780813102693	1278.688794886394	42.775116682471	632.083427106459	789.330538246894	194.157449378237	368.861767998384	846.091181219113	144.818399951512	290.074829025618	950.609126694286	142.339675713448	315.812154950461	1019.583354490717	31.251456172582	288.308015924194	1057.333796682369	1079.296812574668	205.045988494302	1174.168408525623	842.213860151927	196.609981180265	1047.850456141159	1099.094723768902	799.755203634149	1194.417091411058	884.229102361226	806.289451929705	
93	27.332857142857	899.402933063201	1003.396595835377	507.454140179324	1100.586815138224	1426.303986756943	329.972714489774	1192.381174565579	1359.613272714697	498.339286541153	1099.772470658566	1436.798604725102	665.862842499729	1082.455299422698	1491.925336936344	485.524916495055	1123.476714199091	940.982611731993	638.095026413006	1122.181431600905	957.159098929932	364.376687275682	1174.510715836281	743.242178028446	610.733810283504	1094.833301928826	630.694353066986	663.257953439817	1178.975357844950	583.244830388180	587.240090915034	1183.586369978672	493.765177771153	592.275695913059	1186.947608330486	755.631098045791	388.490650761293	1127.572431351568	636.104186116910	305.842139826495	1221.317981633318	561.657081272150	367.574726269824	1222.951899763736	473.964361697304	359.377026137581	1153.163944807342	412.996708656622	347.217080549854	1012.224671627510	379.509766716585	291.175999536766	989.915499877981	249.586243653934	341.069482161821	1153.017467872800	404.685524181420	596.396381359738	1078.827104586044	301.519202753583	654.899317163692	1119.471477858483	206.351280751772	591.581341784981	984.270928571053	43.897461742989	556.223755580129	1153.594865707373	97.176059658044	600.027612802453	1064.669739188785	37.388074052099	634.891681346145	1273.467797811784	42.650347891112	632.189240772730	794.762886303981	202.008775381222	369.839996118363	850.790784176207	151.819851893626	290.915605540189	955.427840389647	146.851782565049	316.918075210905	1021.900145612186	31.974986564187	288.817700958579	1053.881081276039	1079.634378822134	207.196588172282	1171.341449828709	842.973648008063	196.574863770164	1051.567852063827	1099.677216054467	804.419199680704	1201.104848526422	887.037013594300	810.521834780075	
